# xmcd
#
# Track frame offsets:
#	150
#	14207
#	33610
#	50921
#	64464
#	75302
#	104484
#	128131
#	151159
#	177627
#	190322
#	201738
#	212476
#	225974
#	239639
#	255921
#	268859
#	295715
#	310608
#	323816
#
# Disc length: 4493 seconds
#
# Revision: 0
# Processed by: cddbd v1.5.2PL0 Copyright (c) Steve Scherf et al.
# Submitted via: EasyCDDAExtractor 2011.3.0.0
#
DISCID=2b118b14
DTITLE=Muddy Waters - Fundamentals
DYEAR=2008
DGENRE=Blues
TTITLE0=Rollin´ Stone
TTITLE1=Soon Forgotten
TTITLE2=Where´s my woman benn (live)
TTITLE3=Blow mind blow (live)
TTITLE4=Got my mojo workin´(live)
TTITLE5=I feel so good
TTITLE6=Howlin´ wolf
TTITLE7=Mean ol´frisco
TTITLE8=Screamin´ and cryin´(live)
TTITLE9=Long distance blues (live)
TTITLE10=Flyd´s guitar blues (live)
TTITLE11=Garbage man (live)
TTITLE12=Baby olease dont´t go (live)
TTITLE13=Going home (live)
TTITLE14=Standing around crying
TTITLE15=I´m ready (live)
TTITLE16=Hoochie coochie man (live)
TTITLE17=Corriente, corrina (live)
TTITLE18=Forty days and forty night (live)
TTITLE19=Caldonia (live)
EXTD=
EXTT0=
EXTT1=
EXTT2=
EXTT3=
EXTT4=
EXTT5=
EXTT6=
EXTT7=
EXTT8=
EXTT9=
EXTT10=
EXTT11=
EXTT12=
EXTT13=
EXTT14=
EXTT15=
EXTT16=
EXTT17=
EXTT18=
EXTT19=
PLAYORDER=
